<?xml version="1.0" encoding="UTF-8" standalone="no"?>
<svg
   width="200"
   height="200"
   viewBox="0 0 200 200"
   version="1.1"
   xml:space="preserve"
   style="clip-rule:evenodd;fill-rule:evenodd;stroke-miterlimit:10"
   id="svg3"
   sodipodi:docname="a.svg"
   inkscape:version="1.3.2 (091e20e, 2023-11-25)"
   xmlns:inkscape="http://www.inkscape.org/namespaces/inkscape"
   xmlns:sodipodi="http://sodipodi.sourceforge.net/DTD/sodipodi-0.dtd"
   xmlns="http://www.w3.org/2000/svg"
   xmlns:svg="http://www.w3.org/2000/svg"><defs
   id="defs3" /><sodipodi:namedview
   id="namedview3"
   pagecolor="#505050"
   bordercolor="#eeeeee"
   borderopacity="1"
   inkscape:showpageshadow="0"
   inkscape:pageopacity="0"
   inkscape:pagecheckerboard="0"
   inkscape:deskcolor="#505050"
   inkscape:zoom="3.3291667"
   inkscape:cx="105.2816"
   inkscape:cy="117.89737"
   inkscape:window-width="1392"
   inkscape:window-height="1212"
   inkscape:window-x="0"
   inkscape:window-y="25"
   inkscape:window-maximized="0"
   inkscape:current-layer="svg3" />
    <g
   transform="matrix(0.99294561,0,0,0.99273714,-2228.2191,-979.58502)"
   id="g3">
        <g
   transform="matrix(0,-4.16667,-4.16658,0,2344.76,988.835)"
   id="g1">
            <circle
   cx="-23.671"
   cy="0"
   style="fill:none;stroke:#ffffff;stroke-width:1px"
   id="ellipse1"
   r="23.671" />
        </g>
        <g
   transform="matrix(4.16667,0,0,4.16667,2320.67,1055.16)"
   id="g2">
            <path
   d="m 0,15.509 c 0.147,0 0.262,-0.04 0.344,-0.122 0.081,-0.081 0.129,-0.151 0.143,-0.21 l 1.374,-3.545 h 7.843 l 1.373,3.545 c 0.03,0.059 0.081,0.129 0.155,0.21 0.075,0.082 0.185,0.122 0.333,0.122 h 0.443 c 0.118,0 0.221,-0.044 0.31,-0.133 0.089,-0.089 0.133,-0.192 0.133,-0.31 0,-0.074 -0.014,-0.156 -0.044,-0.244 L 6.802,0.444 C 6.742,0.296 6.665,0.185 6.569,0.112 6.473,0.037 6.336,0 6.159,0 H 5.406 C 5.229,0 5.092,0.037 4.996,0.112 4.899,0.185 4.822,0.296 4.764,0.444 l -5.606,14.378 c -0.03,0.088 -0.045,0.17 -0.045,0.244 0,0.118 0.045,0.221 0.134,0.31 0.088,0.089 0.191,0.133 0.31,0.133 z m 5.782,-13.936 3.39,8.73 H 2.393 Z"
   style="fill-rule:nonzero;stroke:#ffffff;stroke-width:1px"
   id="path1" />
        </g>
    </g>
</svg>
