<?xml version="1.0" encoding="UTF-8" standalone="no"?>
<svg
   width="510"
   height="510"
   viewBox="0 0 510 510"
   version="1.1"
   xml:space="preserve"
   style="clip-rule:evenodd;fill-rule:evenodd;stroke-miterlimit:10"
   id="svg36"
   sodipodi:docname="dpad.svg"
   inkscape:version="1.3.2 (091e20e, 2023-11-25)"
   xmlns:inkscape="http://www.inkscape.org/namespaces/inkscape"
   xmlns:sodipodi="http://sodipodi.sourceforge.net/DTD/sodipodi-0.dtd"
   xmlns="http://www.w3.org/2000/svg"
   xmlns:svg="http://www.w3.org/2000/svg"><defs
   id="defs36" /><sodipodi:namedview
   id="namedview36"
   pagecolor="#505050"
   bordercolor="#eeeeee"
   borderopacity="1"
   inkscape:showpageshadow="0"
   inkscape:pageopacity="0"
   inkscape:pagecheckerboard="0"
   inkscape:deskcolor="#505050"
   inkscape:zoom="1.365812"
   inkscape:cx="242.71277"
   inkscape:cy="286.64268"
   inkscape:window-width="1392"
   inkscape:window-height="1212"
   inkscape:window-x="0"
   inkscape:window-y="25"
   inkscape:window-maximized="0"
   inkscape:current-layer="svg36" />
    <g
   id="D-Pad"
   transform="matrix(0.549411,0,0,0.549411,-866.93187,-206.34582)">
        <g
   id="Extended">
            <g
   transform="translate(106.181)"
   id="g4">
                <g
   transform="matrix(4.16667,0,0,4.16667,2152.23,957.735)"
   id="g1">
                    <path
   d="m 0,-54.889 h 50.679 c 3.732,0 6.758,3.025 6.758,6.757 V -6.757 C 57.437,-3.025 54.411,0 50.679,0 H -0.002"
   style="fill:none;fill-rule:nonzero;stroke:#000000;stroke-width:3.64px"
   id="path1" />
                </g>
                <g
   transform="matrix(4.16667,0,0,4.16667,2152.23,957.735)"
   id="g2">
                    <path
   d="m 0,-54.889 h 50.679 c 3.732,0 6.758,3.025 6.758,6.757 V -6.757 C 57.437,-3.025 54.411,0 50.679,0 H -0.002"
   style="fill:none;fill-rule:nonzero;stroke:#b5b5b5;stroke-width:1.82px"
   id="path2" />
                </g>
                <g
   transform="matrix(3.37813,0,0,3.37813,2341.52,817.188)"
   id="g3">
                    <path
   d="m 0,15.509 c 1.004,0 1.85,-0.211 2.536,-0.632 0.688,-0.421 1.204,-0.967 1.552,-1.639 0.347,-0.671 0.52,-1.377 0.52,-2.116 0,-0.93 -0.229,-1.72 -0.687,-2.371 C 3.463,8.102 2.938,7.629 2.349,7.334 2.644,7.187 2.942,6.972 3.245,6.692 3.548,6.41 3.8,6.045 3.999,5.595 4.198,5.144 4.298,4.602 4.298,3.966 4.298,3.257 4.143,2.604 3.833,2.005 3.522,1.407 3.038,0.924 2.382,0.554 1.724,0.185 0.878,0 -0.155,0 H -5.937 C -6.086,0 -6.204,0.045 -6.292,0.133 -6.381,0.222 -6.425,0.348 -6.425,0.51 v 14.512 c 0,0.147 0.044,0.265 0.133,0.354 0.088,0.089 0.206,0.133 0.355,0.133 z M -5.029,8.065 h 4.807 c 1.093,0 1.939,0.285 2.537,0.853 0.598,0.569 0.897,1.304 0.897,2.204 0,0.886 -0.299,1.617 -0.897,2.194 -0.598,0.576 -1.444,0.864 -2.537,0.864 h -4.807 z m 0,-6.736 h 4.586 c 1.092,0 1.923,0.222 2.492,0.665 0.568,0.444 0.853,1.101 0.853,1.972 0,0.872 -0.285,1.551 -0.853,2.038 -0.569,0.487 -1.4,0.732 -2.492,0.732 h -4.586 z"
   style="fill-rule:nonzero;stroke:#b5b5b5;stroke-width:0.54px"
   id="path3" />
                </g>
            </g>
            <g
   transform="translate(-106.155)"
   id="g8">
                <g
   transform="matrix(4.16667,0,0,4.16667,1931.87,729.033)"
   id="g5">
                    <path
   d="m 0,54.889 h -50.735 c -3.702,0 -6.702,-3.025 -6.702,-6.757 V 6.757 c 0,-3.732 3,-6.757 6.702,-6.757 H 0"
   style="fill:none;fill-rule:nonzero;stroke:#000000;stroke-width:3.64px"
   id="path4" />
                </g>
                <g
   transform="matrix(4.16667,0,0,4.16667,1931.87,729.033)"
   id="g6">
                    <path
   d="m 0,54.889 h -50.735 c -3.702,0 -6.702,-3.025 -6.702,-6.757 V 6.757 c 0,-3.732 3,-6.757 6.702,-6.757 H 0"
   style="fill:none;fill-rule:nonzero;stroke:#b5b5b5;stroke-width:1.82px"
   id="path5" />
                </g>
                <g
   transform="matrix(3.37813,0,0,3.37813,1748.72,817.188)"
   id="g7">
                    <path
   d="m 0,15.509 c 1.004,0 1.85,-0.211 2.536,-0.632 0.688,-0.421 1.204,-0.967 1.552,-1.639 0.347,-0.671 0.52,-1.377 0.52,-2.116 0,-0.93 -0.229,-1.72 -0.687,-2.371 C 3.463,8.102 2.938,7.629 2.349,7.334 2.644,7.187 2.942,6.972 3.245,6.692 3.548,6.41 3.8,6.045 3.999,5.595 4.198,5.144 4.298,4.602 4.298,3.966 4.298,3.257 4.143,2.604 3.833,2.005 3.522,1.407 3.038,0.924 2.382,0.554 1.724,0.185 0.878,0 -0.155,0 H -5.937 C -6.086,0 -6.204,0.045 -6.292,0.133 -6.381,0.222 -6.425,0.348 -6.425,0.51 v 14.512 c 0,0.147 0.044,0.265 0.133,0.354 0.088,0.089 0.206,0.133 0.355,0.133 z M -5.029,8.065 h 4.807 c 1.093,0 1.939,0.285 2.537,0.853 0.598,0.569 0.897,1.304 0.897,2.204 0,0.886 -0.299,1.617 -0.897,2.194 -0.598,0.576 -1.444,0.864 -2.537,0.864 h -4.807 z m 0,-6.736 h 4.586 c 1.092,0 1.923,0.222 2.492,0.665 0.568,0.444 0.853,1.101 0.853,1.972 0,0.872 -0.285,1.551 -0.853,2.038 -0.569,0.487 -1.4,0.732 -2.492,0.732 h -4.586 z"
   style="fill-rule:nonzero;stroke:#b5b5b5;stroke-width:0.54px"
   id="path6" />
                </g>
            </g>
            <g
   transform="translate(-0.0306228,106.149)"
   id="g12">
                <g
   transform="matrix(4.16667,0,0,4.16667,2156.41,1188.67)"
   id="g9">
                    <path
   d="m 0,-55.925 v 49.403 c 0,3.732 -3.025,6.757 -6.757,6.757 h -41.375 c -3.732,0 -6.757,-3.025 -6.757,-6.757 V -56.16"
   style="fill:none;fill-rule:nonzero;stroke:#000000;stroke-width:3.64px"
   id="path8" />
                </g>
                <g
   transform="matrix(4.16667,0,0,4.16667,2156.41,1188.67)"
   id="g10">
                    <path
   d="m 0,-55.925 v 49.403 c 0,3.732 -3.025,6.757 -6.757,6.757 h -41.375 c -3.732,0 -6.757,-3.025 -6.757,-6.757 V -56.16"
   style="fill:none;fill-rule:nonzero;stroke:#b5b5b5;stroke-width:1.82px"
   id="path9" />
                </g>
                <g
   transform="matrix(3.37813,0,0,3.37813,2045.12,1111.28)"
   id="g11">
                    <path
   d="m 0,15.509 c 1.004,0 1.85,-0.211 2.536,-0.632 0.688,-0.421 1.204,-0.967 1.552,-1.639 0.347,-0.671 0.52,-1.377 0.52,-2.116 0,-0.93 -0.229,-1.72 -0.687,-2.371 C 3.463,8.102 2.938,7.629 2.349,7.334 2.644,7.187 2.942,6.972 3.245,6.692 3.548,6.41 3.8,6.045 3.999,5.595 4.198,5.144 4.298,4.602 4.298,3.966 4.298,3.257 4.143,2.604 3.833,2.005 3.522,1.407 3.038,0.924 2.382,0.554 1.724,0.185 0.878,0 -0.155,0 H -5.937 C -6.086,0 -6.204,0.045 -6.292,0.133 -6.381,0.222 -6.425,0.348 -6.425,0.51 v 14.512 c 0,0.147 0.044,0.265 0.133,0.354 0.088,0.089 0.206,0.133 0.355,0.133 z M -5.029,8.065 h 4.807 c 1.093,0 1.939,0.285 2.537,0.853 0.598,0.569 0.897,1.304 0.897,2.204 0,0.886 -0.299,1.617 -0.897,2.194 -0.598,0.576 -1.444,0.864 -2.537,0.864 h -4.807 z m 0,-6.736 h 4.586 c 1.092,0 1.923,0.222 2.492,0.665 0.568,0.444 0.853,1.101 0.853,1.972 0,0.872 -0.285,1.551 -0.853,2.038 -0.569,0.487 -1.4,0.732 -2.492,0.732 h -4.586 z"
   style="fill-rule:nonzero;stroke:#b5b5b5;stroke-width:0.54px"
   id="path10" />
                </g>
            </g>
            <g
   transform="translate(-0.490205,-154.366)"
   id="g16">
                <g
   transform="matrix(4.16667,0,0,4.16667,2156.41,539.55)"
   id="g13">
                    <path
   d="M 0,57.042 V 57.417 6.382 C 0,2.65 -3.025,-0.375 -6.757,-0.375 h -41.375 c -3.732,0 -6.757,3.025 -6.757,6.757 v 50.974"
   style="fill:none;fill-rule:nonzero;stroke:#000000;stroke-width:3.64px"
   id="path12" />
                </g>
                <g
   transform="matrix(4.16667,0,0,4.16667,2156.41,539.55)"
   id="g14">
                    <path
   d="M 0,57.042 V 57.417 6.382 C 0,2.65 -3.025,-0.375 -6.757,-0.375 h -41.375 c -3.732,0 -6.757,3.025 -6.757,6.757 v 50.974"
   style="fill:none;fill-rule:nonzero;stroke:#b5b5b5;stroke-width:1.82px"
   id="path13" />
                </g>
                <g
   transform="matrix(3.37813,0,0,3.37813,2045.12,564.862)"
   id="g15">
                    <path
   d="m 0,15.509 c 1.004,0 1.85,-0.211 2.536,-0.632 0.688,-0.421 1.204,-0.967 1.552,-1.639 0.347,-0.671 0.52,-1.377 0.52,-2.116 0,-0.93 -0.229,-1.72 -0.687,-2.371 C 3.463,8.102 2.938,7.629 2.349,7.334 2.644,7.187 2.942,6.972 3.245,6.692 3.548,6.41 3.8,6.045 3.999,5.595 4.198,5.144 4.298,4.602 4.298,3.966 4.298,3.257 4.143,2.604 3.833,2.005 3.522,1.407 3.038,0.924 2.382,0.554 1.724,0.185 0.878,0 -0.155,0 H -5.937 C -6.086,0 -6.204,0.045 -6.292,0.133 -6.381,0.222 -6.425,0.348 -6.425,0.51 v 14.512 c 0,0.147 0.044,0.265 0.133,0.354 0.088,0.089 0.206,0.133 0.355,0.133 z M -5.029,8.065 h 4.807 c 1.093,0 1.939,0.285 2.537,0.853 0.598,0.569 0.897,1.304 0.897,2.204 0,0.886 -0.299,1.617 -0.897,2.194 -0.598,0.576 -1.444,0.864 -2.537,0.864 h -4.807 z m 0,-6.736 h 4.586 c 1.092,0 1.923,0.222 2.492,0.665 0.568,0.444 0.853,1.101 0.853,1.972 0,0.872 -0.285,1.551 -0.853,2.038 -0.569,0.487 -1.4,0.732 -2.492,0.732 h -4.586 z"
   style="fill-rule:nonzero;stroke:#b5b5b5;stroke-width:0.54px"
   id="path14" />
                </g>
            </g>
        </g>
        <g
   id="Core"
   transform="translate(-0.0408766,-0.132551)">
            <g
   id="g21">
                <g
   transform="matrix(4.16667,0,0,4.16667,2152.23,957.735)"
   id="g17">
                    <path
   d="m 0,-54.889 h 50.679 c 3.732,0 6.758,3.025 6.758,6.757 V -6.757 C 57.437,-3.025 54.411,0 50.679,0 H -0.002"
   style="fill:none;fill-rule:nonzero;stroke:#231f20;stroke-width:3.64px"
   id="path16" />
                </g>
                <g
   transform="matrix(4.16667,0,0,4.16667,2152.23,957.735)"
   id="g18">
                    <path
   d="m 0,-54.889 h 50.679 c 3.732,0 6.758,3.025 6.758,6.757 V -6.757 C 57.437,-3.025 54.411,0 50.679,0 H -0.002"
   style="fill:none;fill-rule:nonzero;stroke:#ffffff;stroke-width:1.82px"
   id="path17" />
                </g>
                <g
   transform="matrix(4.16667,0,0,4.16667,2278.28,843.33)"
   id="g19">
                    <path
   d="M 0,0.026 V 0 c 0,-1.005 0.815,-1.819 1.819,-1.819 h 9.356 c 1.005,0 1.82,0.814 1.82,1.819 v 0.026 c 0,1.005 -0.815,1.819 -1.82,1.819 H 1.819 C 0.815,1.845 0,1.031 0,0.026 Z"
   style="fill:none;fill-rule:nonzero;stroke:#58595b;stroke-width:3.64px"
   id="path18" />
                </g>
                <g
   transform="matrix(4.16667,0,0,4.16667,2278.28,843.33)"
   id="g20">
                    <path
   d="M 0,0.026 V 0 c 0,-1.005 0.815,-1.819 1.819,-1.819 h 9.356 c 1.005,0 1.82,0.814 1.82,1.819 v 0.026 c 0,1.005 -0.815,1.819 -1.82,1.819 H 1.819 C 0.815,1.845 0,1.031 0,0.026 Z"
   style="fill:none;fill-rule:nonzero;stroke:#ffffff;stroke-width:1.82px"
   id="path19" />
                </g>
            </g>
            <g
   id="g26">
                <g
   transform="matrix(4.16667,0,0,4.16667,1931.87,729.033)"
   id="g22">
                    <path
   d="m 0,54.889 h -50.735 c -3.702,0 -6.702,-3.025 -6.702,-6.757 V 6.757 c 0,-3.732 3,-6.757 6.702,-6.757 H 0"
   style="fill:none;fill-rule:nonzero;stroke:#231f20;stroke-width:3.64px"
   id="path21" />
                </g>
                <g
   transform="matrix(4.16667,0,0,4.16667,1931.87,729.033)"
   id="g23">
                    <path
   d="m 0,54.889 h -50.735 c -3.702,0 -6.702,-3.025 -6.702,-6.757 V 6.757 c 0,-3.732 3,-6.757 6.702,-6.757 H 0"
   style="fill:none;fill-rule:nonzero;stroke:#ffffff;stroke-width:1.82px"
   id="path22" />
                </g>
                <g
   transform="matrix(4.16667,0,0,4.16667,1751.68,843.33)"
   id="g24">
                    <path
   d="M 0,0.026 V 0 c 0,-1.005 0.815,-1.819 1.819,-1.819 h 9.356 c 1.005,0 1.82,0.814 1.82,1.819 v 0.026 c 0,1.005 -0.815,1.819 -1.82,1.819 H 1.819 C 0.815,1.845 0,1.031 0,0.026 Z"
   style="fill:none;fill-rule:nonzero;stroke:#231f20;stroke-width:3.64px"
   id="path23" />
                </g>
                <g
   transform="matrix(4.16667,0,0,4.16667,1751.68,843.33)"
   id="g25">
                    <path
   d="M 0,0.026 V 0 c 0,-1.005 0.815,-1.819 1.819,-1.819 h 9.356 c 1.005,0 1.82,0.814 1.82,1.819 v 0.026 c 0,1.005 -0.815,1.819 -1.82,1.819 H 1.819 C 0.815,1.845 0,1.031 0,0.026 Z"
   style="fill:#b5b5b5;fill-rule:nonzero;stroke:#ffffff;stroke-width:1.82px"
   id="path24" />
                </g>
            </g>
            <g
   id="g31">
                <g
   transform="matrix(4.16667,0,0,4.16667,2156.41,1188.67)"
   id="g27">
                    <path
   d="m 0,-55.925 v 49.403 c 0,3.732 -3.025,6.757 -6.757,6.757 h -41.375 c -3.732,0 -6.757,-3.025 -6.757,-6.757 V -56.16"
   style="fill:none;fill-rule:nonzero;stroke:#231f20;stroke-width:3.64px"
   id="path26" />
                </g>
                <g
   transform="matrix(4.16667,0,0,4.16667,2156.41,1188.67)"
   id="g28">
                    <path
   d="m 0,-55.925 v 49.403 c 0,3.732 -3.025,6.757 -6.757,6.757 h -41.375 c -3.732,0 -6.757,-3.025 -6.757,-6.757 V -56.16"
   style="fill:none;fill-rule:nonzero;stroke:#ffffff;stroke-width:1.82px"
   id="path27" />
                </g>
                <g
   transform="matrix(4.16667,0,0,4.16667,2042.21,1076.37)"
   id="g29">
                    <path
   d="m 0,12.995 h -0.076 c -0.991,0 -1.794,-0.803 -1.794,-1.794 V 1.795 C -1.87,0.804 -1.067,0 -0.076,0 H 0 c 0.991,0 1.794,0.804 1.794,1.795 v 9.406 c 0,0.991 -0.803,1.794 -1.794,1.794 z"
   style="fill:none;fill-rule:nonzero;stroke:#58595b;stroke-width:3.64px"
   id="path28" />
                </g>
                <g
   transform="matrix(4.16667,0,0,4.16667,2042.21,1076.37)"
   id="g30">
                    <path
   d="m 0,12.995 h -0.076 c -0.991,0 -1.794,-0.803 -1.794,-1.794 V 1.795 C -1.87,0.804 -1.067,0 -0.076,0 H 0 c 0.991,0 1.794,0.804 1.794,1.795 v 9.406 c 0,0.991 -0.803,1.794 -1.794,1.794 z"
   style="fill:none;fill-rule:nonzero;stroke:#ffffff;stroke-width:1.82px"
   id="path29" />
                </g>
            </g>
            <g
   transform="translate(-0.419777,-0.880744)"
   id="g36">
                <g
   transform="matrix(4.16667,0,0,4.16667,2156.41,492.204)"
   id="g32">
                    <path
   d="M 0,57.042 V 57.417 6.382 C 0,2.65 -3.025,-0.375 -6.757,-0.375 h -41.375 c -3.732,0 -6.757,3.025 -6.757,6.757 v 50.974"
   style="fill:none;fill-rule:nonzero;stroke:#231f20;stroke-width:3.64px"
   id="path31" />
                </g>
                <g
   transform="matrix(4.16667,0,0,4.16667,2156.41,492.204)"
   id="g33">
                    <path
   d="M 0,57.042 V 57.417 6.382 C 0,2.65 -3.025,-0.375 -6.757,-0.375 h -41.375 c -3.732,0 -6.757,3.025 -6.757,6.757 v 50.974"
   style="fill:none;fill-rule:nonzero;stroke:#ffffff;stroke-width:1.82px"
   id="path32" />
                </g>
                <g
   transform="matrix(4.16667,0,0,4.16667,2042.05,549.693)"
   id="g34">
                    <path
   d="m 0,12.995 c -1.012,0 -1.832,-0.82 -1.832,-1.832 V 1.833 C -1.832,0.821 -1.012,0 0,0 1.012,0 1.832,0.821 1.832,1.833 v 9.33 c 0,1.012 -0.82,1.832 -1.832,1.832 z"
   style="fill:none;fill-rule:nonzero;stroke:#58595b;stroke-width:3.64px"
   id="path33" />
                </g>
                <g
   transform="matrix(4.16667,0,0,4.16667,2042.05,549.693)"
   id="g35">
                    <path
   d="m 0,12.995 c -1.012,0 -1.832,-0.82 -1.832,-1.832 V 1.833 C -1.832,0.821 -1.012,0 0,0 1.012,0 1.832,0.821 1.832,1.833 v 9.33 c 0,1.012 -0.82,1.832 -1.832,1.832 z"
   style="fill:none;fill-rule:nonzero;stroke:#ffffff;stroke-width:1.82px"
   id="path34" />
                </g>
            </g>
        </g>
    </g>
</svg>
