<?xml version="1.0" encoding="UTF-8" standalone="no"?>
<svg
   width="130"
   height="60"
   viewBox="0 0 130 60"
   version="1.1"
   xml:space="preserve"
   style="clip-rule:evenodd;fill-rule:evenodd;stroke-miterlimit:10"
   id="svg7"
   sodipodi:docname="menu.svg"
   inkscape:version="1.3.2 (091e20e, 2023-11-25)"
   xmlns:inkscape="http://www.inkscape.org/namespaces/inkscape"
   xmlns:sodipodi="http://sodipodi.sourceforge.net/DTD/sodipodi-0.dtd"
   xmlns="http://www.w3.org/2000/svg"
   xmlns:svg="http://www.w3.org/2000/svg"><defs
   id="defs7" /><sodipodi:namedview
   id="namedview7"
   pagecolor="#505050"
   bordercolor="#eeeeee"
   borderopacity="1"
   inkscape:showpageshadow="0"
   inkscape:pageopacity="0"
   inkscape:pagecheckerboard="0"
   inkscape:deskcolor="#505050"
   inkscape:zoom="4.5397727"
   inkscape:cx="60.906133"
   inkscape:cy="44.605757"
   inkscape:window-width="1392"
   inkscape:window-height="1212"
   inkscape:window-x="0"
   inkscape:window-y="25"
   inkscape:window-maximized="0"
   inkscape:current-layer="svg7" />
    <g
   transform="matrix(0.62672539,0,0,0.62672539,-1518.7233,-492.63343)"
   id="g7">
        <g
   transform="matrix(4.16667,0,0,4.16667,2596.6,790.178)"
   id="g1">
            <path
   d="m 0,20.992 h -33.416 c -3.642,0 -6.594,-2.952 -6.594,-6.593 V 6.593 C -40.01,2.952 -37.058,0 -33.416,0 H 0 c 3.641,0 6.593,2.952 6.593,6.593 v 7.806 c 0,3.641 -2.952,6.593 -6.593,6.593 z"
   style="fill:none;fill-rule:nonzero;stroke:#231f20;stroke-width:1.97px"
   id="path1" />
        </g>
        <g
   transform="matrix(4.16667,0,0,4.16667,2596.6,790.178)"
   id="g2">
            <path
   d="m 0,20.992 h -33.416 c -3.642,0 -6.594,-2.952 -6.594,-6.593 V 6.593 C -40.01,2.952 -37.058,0 -33.416,0 H 0 c 3.641,0 6.593,2.952 6.593,6.593 v 7.806 c 0,3.641 -2.952,6.593 -6.593,6.593 z"
   style="fill:none;fill-rule:nonzero;stroke:#ffffff;stroke-width:1.58px"
   id="path2" />
        </g>
        <g
   transform="matrix(4.16667,0,0,4.16667,2469.33,815.006)"
   id="g3">
            <path
   d="M 0,7.801 C 0.074,7.801 0.134,7.779 0.179,7.735 0.224,7.69 0.246,7.63 0.246,7.556 v -6.04 l 2.128,4.19 C 2.411,5.78 2.456,5.836 2.508,5.873 2.56,5.91 2.63,5.929 2.72,5.929 H 2.965 C 3.054,5.929 3.126,5.91 3.182,5.873 3.237,5.836 3.28,5.78 3.311,5.706 l 2.127,-4.19 v 6.04 c 0,0.074 0.023,0.134 0.067,0.179 0.045,0.044 0.104,0.066 0.179,0.066 h 0.2 C 5.966,7.801 6.029,7.779 6.073,7.735 6.118,7.69 6.141,7.63 6.141,7.556 V 0.257 C 6.141,0.175 6.118,0.112 6.073,0.068 6.029,0.023 5.966,0 5.884,0 H 5.617 C 5.542,0 5.488,0.019 5.455,0.056 5.422,0.094 5.397,0.123 5.383,0.146 L 2.842,5.071 0.312,0.146 C 0.305,0.123 0.282,0.094 0.246,0.056 0.208,0.019 0.152,0 0.078,0 H -0.2 c -0.074,0 -0.136,0.023 -0.184,0.068 -0.049,0.044 -0.072,0.107 -0.072,0.189 v 7.299 c 0,0.074 0.023,0.134 0.072,0.179 0.048,0.044 0.11,0.066 0.184,0.066 z"
   style="fill:#ffffff;fill-rule:nonzero;stroke:#000000;stroke-width:0.2px"
   id="path3" />
        </g>
        <g
   transform="matrix(4.16667,0,0,4.16667,2523.14,815.006)"
   id="g4">
            <path
   d="M 0,7.801 C 0.082,7.801 0.146,7.779 0.189,7.735 0.234,7.69 0.257,7.63 0.257,7.556 V 7.389 C 0.257,7.307 0.234,7.243 0.189,7.199 0.146,7.155 0.082,7.132 0,7.132 H -3.978 V 4.179 h 3.644 c 0.082,0 0.145,-0.022 0.189,-0.066 C -0.1,4.068 -0.078,4.009 -0.078,3.934 V 3.767 C -0.078,3.686 -0.1,3.622 -0.145,3.577 -0.189,3.533 -0.252,3.511 -0.334,3.511 H -3.978 V 0.669 h 3.889 c 0.082,0 0.145,-0.022 0.19,-0.066 C 0.146,0.558 0.167,0.498 0.167,0.424 V 0.257 C 0.167,0.175 0.146,0.112 0.101,0.068 0.056,0.023 -0.007,0 -0.089,0 H -4.435 C -4.509,0 -4.568,0.023 -4.613,0.068 -4.658,0.112 -4.68,0.175 -4.68,0.257 v 7.299 c 0,0.074 0.022,0.134 0.067,0.179 0.045,0.044 0.104,0.066 0.178,0.066 z"
   style="fill:#ffffff;fill-rule:nonzero;stroke:#000000;stroke-width:0.2px"
   id="path4" />
        </g>
        <g
   transform="matrix(4.16667,0,0,4.16667,2532.98,815.006)"
   id="g5">
            <path
   d="M 0,7.801 C 0.082,7.801 0.145,7.779 0.189,7.735 0.234,7.69 0.257,7.63 0.257,7.556 V 1.405 l 4.1,6.262 C 4.372,7.682 4.396,7.708 4.43,7.745 4.463,7.782 4.517,7.801 4.591,7.801 H 4.836 C 4.91,7.801 4.97,7.777 5.015,7.729 5.06,7.68 5.081,7.619 5.081,7.545 V 0.257 C 5.081,0.175 5.06,0.112 5.015,0.068 4.97,0.023 4.907,0 4.825,0 h -0.2 C 4.55,0 4.491,0.023 4.446,0.068 4.401,0.112 4.38,0.175 4.38,0.257 V 6.419 L 0.268,0.134 C 0.26,0.119 0.237,0.094 0.2,0.056 0.163,0.019 0.107,0 0.033,0 H -0.2 c -0.074,0 -0.134,0.023 -0.179,0.068 -0.045,0.044 -0.066,0.107 -0.066,0.189 v 7.299 c 0,0.074 0.021,0.134 0.066,0.179 0.045,0.044 0.105,0.066 0.179,0.066 z"
   style="fill:#ffffff;fill-rule:nonzero;stroke:#000000;stroke-width:0.2px"
   id="path5" />
        </g>
        <g
   transform="matrix(4.16667,0,0,4.16667,2581.04,816.399)"
   id="g6">
            <path
   d="M 0,7.244 C 0.424,7.021 0.749,6.68 0.976,6.219 1.202,5.758 1.315,5.168 1.315,4.447 v -4.524 c 0,-0.082 -0.022,-0.146 -0.067,-0.19 C 1.204,-0.312 1.145,-0.334 1.07,-0.334 H 0.869 c -0.074,0 -0.136,0.022 -0.183,0.067 -0.049,0.044 -0.073,0.108 -0.073,0.19 V 4.48 c 0,0.832 -0.195,1.446 -0.585,1.839 -0.39,0.394 -0.916,0.59 -1.577,0.59 -0.668,0 -1.197,-0.196 -1.588,-0.59 C -3.526,5.926 -3.722,5.312 -3.722,4.48 v -4.557 c 0,-0.082 -0.022,-0.146 -0.066,-0.19 -0.045,-0.045 -0.108,-0.067 -0.19,-0.067 h -0.201 c -0.074,0 -0.133,0.022 -0.177,0.067 -0.045,0.044 -0.068,0.108 -0.068,0.19 v 4.524 c 0,0.721 0.115,1.311 0.346,1.772 0.23,0.461 0.558,0.802 0.986,1.025 0.427,0.223 0.942,0.334 1.543,0.334 0.61,0 1.126,-0.111 1.549,-0.334 z"
   style="fill:#ffffff;fill-rule:nonzero;stroke:#000000;stroke-width:0.2px"
   id="path6" />
        </g>
    </g>
</svg>
